<?xml version="1.0" encoding="UTF-8"?>
<svg id="Layer_1" data-name="Layer 1" xmlns="http://www.w3.org/2000/svg" xmlns:xlink="http://www.w3.org/1999/xlink" viewBox="0 0 1024 1024">
  <defs>
    <style>
      .cls-1 {
        fill: #39b54a;
      }

      .cls-1, .cls-2, .cls-3 {
        stroke: #231f20;
        stroke-miterlimit: 10;
        stroke-width: 2px;
      }

      .cls-4 {
        fill: url(#linear-gradient-2);
      }

      .cls-5 {
        fill: url(#linear-gradient-5);
        opacity: .7;
      }

      .cls-6 {
        fill: url(#linear-gradient-4);
      }

      .cls-7 {
        fill: url(#linear-gradient-3);
        opacity: .6;
      }

      .cls-2 {
        fill: #231f20;
      }

      .cls-8 {
        fill: url(#linear-gradient-6);
      }

      .cls-3 {
        fill: #fff200;
      }

      .cls-9 {
        fill: url(#linear-gradient);
      }
    </style>
    <linearGradient id="linear-gradient" x1="240.32" y1="444.35" x2="783.68" y2="444.35" gradientUnits="userSpaceOnUse">
      <stop offset="0" stop-color="#ad2d2d"/>
      <stop offset="1" stop-color="#691b1b"/>
    </linearGradient>
    <linearGradient id="linear-gradient-2" x1="257.82" y1="505.81" x2="456.24" y2="505.81" gradientUnits="userSpaceOnUse">
      <stop offset="0" stop-color="#ff4242"/>
      <stop offset="1" stop-color="#ad2d2d"/>
    </linearGradient>
    <linearGradient id="linear-gradient-3" x1="418.37" y1="411.96" x2="652.26" y2="411.96" xlink:href="#linear-gradient-2"/>
    <linearGradient id="linear-gradient-4" x1="345.28" y1="674.36" x2="641.6" y2="674.36" xlink:href="#linear-gradient-2"/>
    <linearGradient id="linear-gradient-5" x1="544.9" y1="609.76" x2="727.47" y2="609.76" xlink:href="#linear-gradient-2"/>
    <linearGradient id="linear-gradient-6" x1="258.65" y1="610.62" x2="749.87" y2="610.62" gradientUnits="userSpaceOnUse">
      <stop offset="0" stop-color="#ffcd05"/>
      <stop offset="1" stop-color="#856b03"/>
    </linearGradient>
  </defs>
  <g id="Heart">
    <path id="path5973" class="cls-9" d="M268.25,233.91c6.45.79,16.11,4.38,30.87,3.75,1.66-9.07.79-18.62-.09-27.7-.87-9.08-3.56-23.42.15-29.37,3.72-5.96,11.85-17.61,31.94-23.71,20.09-6.1,28.47-3.03,29.25,5.4,1.31,14.1,4.7,27.73,5.14,32.03,5.8-7.14,31.07-33.75,31.2-59.06.13-25.31-13.64-35.17-23.73-45.26-3.54-3.54-.48-14.74,5.4-18.83,5.78-4.03,19.65-10.17,25.61-3.93,5.96,6.24,26.11,33.57,30.23,38.13,4.12,4.56,9.63,9.12,14.73,4.61,5.1-4.51,12.04-9.72,14.16-17.11,2.12-7.39,4.09-34.6,6.91-42.47,1.49-4.17,8.33-5.93,14.79-5.89,4.84.03,14.97,2.94,14.94,7.48s-3.29,13.11-3.35,24.34c-.06,11.22,3.59,17.93,4.75,17.93s2.57-7.39,4.68-13.35c2.11-5.96,5.84-14.3,7.24-16.2,1.39-1.9,6.95-7.13,18.44-1.34,11.5,5.79,13.31,12.25,11.2,17.25-2.09,5.01-7.45,15.48-7.5,25.51-.05,10.03,5.65,20.09,13.68,27.53,4.08,3.77,14.48,12.75,23.6,28.06,8.86,14.9,17.09,38.3,14.44,59.06,9.68-1.38,30.92-6.29,39.94-10.78,9.01-4.49,20.13-13.27,26.63-23.02,1.93-2.89,13.42-6.25,20.94,7.28,4.79,8.62,5.87,20.53.79,25.07-1.85,1.66-5.79,4.99-7.41,6.17,3.91,3.13,17.92,11.31,22.28,14.44,4.37,3.13,7.75,18.43-3.39,32.7-11.14,14.27-21.75,15.16-30.26,10.82-8.51-4.34-22.93-9.08-39.45,6.24-9.73,9.02-9.1,21.44-8.91,28.13.2,6.68,1.73,21.74,2.62,27.24,3.22,1.21,11.73,5.07,18.61,12.75,6.88,7.68,13.05,16.55,20.17,22.8,7.11,6.24,13.99,14.87,18.58,17.77,4.6,2.89,14.01,11.3,16.75,16.32,2.74,5.03,4.51,17.46,3.8,22.23.68,1.2,6.42,7.2,9.18,8.64,2.75,1.45,10.57,6.02,14,10.1,3.44,4.08,10.43,14.42,13.05,17.5,5.73,6.72,6.38,11.02,8.22,13.65,1.83,2.63,4.58,7.9,7.08,12.22,2.52,4.32,2.95,9.56,4.54,14.11,1.59,4.55,1.8,8.37,4.09,13.39,2.27,5.03,2.7,11.24,4.98,16.26,2.27,5.02,3.17,10.53,4.53,15.31,1.36,4.78,4.77,12.92,6.59,17.95,1.82,5.02,2.7,13.62,4.52,18.17,1.82,4.54,4.05,18.64,4.71,23.9.67,5.26,2.68,16.49,3.12,21.75.44,5.26.62,11.47,1.53,14.82.91,3.34,1.57,10.27,1.78,13.85.21,3.58,2.9,19.83,2.18,25.09-.72,5.25-.53,12.9-.09,16.96.43,4.05.84,15.05,1.04,19.35.21,4.29-.54,15.99-1.02,20.29-.49,4.29-.76,12.41-4.04,22.18-3.27,9.78-9.79,20.48-16.75,28.81-6.96,8.32-12.31,16.41-25.26,24.22-12.95,7.81-26.82,15.86-38.13,17.71-11.31,1.85-28.82,1.05-38.95-.92-10.13-1.97-18.45.13-35.25-4.97-16.8-5.1-31.53-8.76-40.05-12.14-8.51-3.39-24.38-8.25-31.98-10.92-3.81-1.34-9.88-2.79-15.99-5.14-6.09-2.32-12.21-5.52-16.22-6.97-8.06-2.91-19.78-9.9-27.37-12.8-7.59-2.9-32.46-9.72-40.97-11.68-8.52-1.96-34.78-7.59-41.45-9.05-6.68-1.47-34.75-11.4-51.29-22.71-16.54-11.32-25.27-17.09-36.27-29.32-8.39-9.33-9.86-16.28-14.64-22.29-2.29-2.88-9.17-10.79-9.85-11.27-.69-.48-22.27-18.03-27.95-34.05-5.68-16.03-10.9-31.81-12.03-36.6-1.13-4.78-4.33-8.38-7.29-15.8-2.96-7.42-8.88-21.06-9.7-42.08-.81-21.02-2.48-54.46,3.17-77.11,7.16-28.7,15.9-37.39,22.18-51.94,6.06-14.05,9.33-20.24,17.21-73.69,1.1-7.45,3.43-37.95,4.16-44.87-4.62.93-20.34,9.93-24.51,12.29-4.16,2.36-11.08,2.81-17.93-8.93-6.85-11.74-3.6-16.74-1.75-18.4,1.85-1.66,18.97-13.03,27.29-16.33,8.32-3.3,8.79-5.45,8.8-7.36s-3.21-2.88-12.89-3.89c-9.68-1-16.59-.33-16.32-9.16.28-8.83,9.57-22.14,17.63-21.15ZM299.12,237.65c-1.06,5.67-1.82,21.96-4.01,32.16-2.2,10.19-6.1,24.86-7.19,37.02"/>
    <path class="cls-4" d="M269.3,585.46c-16.62-47.23-25.75-122.18,49.55-171.74,45.8-30.14,71.47-3.93,95.31,25.57,45.2,55.91,50.67,74.61,32.06,94.65-85.52,92.1-162.73,91.83-176.92,51.52Z"/>
    <path class="cls-7" d="M425.06,406.53c45.14,72.59,74.12,76.3,101.31,70.61,33.63-7.05,84.44-14.77,121.65-50.07,23.58-22.37-55.82-72.02-120.22-82.04-2.62-.41-140.99-.01-102.74,61.5Z"/>
    <path class="cls-6" d="M348.9,685.64c-21.5-42.93,57.17-101.74,117.35-113.06,35.46-6.67,90.78,68.51,121.65,107.34,24,30.19,59.28,68.36,52.95,83.01-14.98,34.69-163.05-6.34-198.93-18.61-61.66-21.08-83.1-38.85-93.02-58.68Z"/>
    <path class="cls-5" d="M550.69,551.11c-28.67-35.94,56.09-77.63,101.56-58.68,35.94,14.98,48.24,59.92,57.34,115.18,14.93,90.75,30.01,133.84,2.82,122.39-55.62-23.42-77.52-73.35-161.72-178.89Z"/>
    <path id="path521" class="cls-8" d="M405.92,584.09s32.99-27.82,35.12-51.05c1.79-19.46-.96-30.75,3.78-28.61,2.15.97,8.05,18.32,15.85,28.07,7.8,9.75,95.9,91.87,128.6,139.67,5.73,8.38,42.41,54.3,21.07,79.4-4.46,5.24-8.08,11.67-18.2,13.81s-27.31-.53-56.49-4.2c-22.61-2.84-37.7-8.45-53.95-9.1-16.25-.66-18.84-.65-29.25-6.5-10.4-5.85-24.04-11.7-34.45-13.66-10.4-1.95-20.26-8.61-23.51-11.21-3.25-2.59-7.69-3.09-7.69-3.09,0,0,18.2,12.35,26.65,15.6,8.45,3.25,24.05,7.8,28.6,10.4,4.55,2.6,9.1,5.2,9.1,5.2,0,0-35.18-4.22-25.99-1.95,1.98.49,25.35,7.8,32.49,7.14,7.15-.65,20.8,1.31,27.95,3.25,7.15,1.96,16.25,1.96,23.4,4.56,7.15,2.6,20.15,3.25,20.15,3.25,0,0-27.95,11.7-44.2,11.7,0,0,28.6-1.95,46.15-9.1,0,0,5.85-1.95,12.35-.66,6.5,1.31,9.78,1.5,12.29,3.38,0,0-4.9,7.26-5.65,8.79-1.33,2.72-3.66,6.55-5.22,8.19-8.16,8.61-12.46,16.85-12.46,16.85,0,0-3.03,3.83,12.03-10.6,8.21-7.87,12.55-16.32,12.55-16.32,0,0,3.1,7.77,4.39,19.46,1.3,11.7,2.62,14.33,2.62,14.33,0,0,1.15-10.86,1.15-16.22,0-6.9-5.18-18.7-.63-22.6,0,0,7.9,15.27,15.69,27.62,7.8,12.35,9.2,10.51,9.2,10.51,0,0-4.11-5.22-6.06-13.02-1.24-4.97-10.53-18.74-11.3-24.48-.44-3.27,5.68.73,8.16-1.26,4.19-3.35,3.83,10.31,20.08,20.71,16.25,10.39,16.77,10.01,20.02,13.92,0,0-9.28-11.32-17.73-19.12-5.12-4.73-11.9-10.08-11.08-13.63.53-2.3,7.29-2.6,10.04-5.02,15.69-13.81,37.03-33.89,5.23-81.39,0,0,5.31.84,9.21,6.7,3.9,5.84,26.21,26.81,30.75,32.01,4.55,5.2,17.99,24.51,14.74,38.17-3.25,13.64-19.5,24.04-21.45,36.39-1.95,12.35-1.95,14.31-1.95,14.31,0,0,5.03-22.51,19.33-35.52,14.3-13,6.67-39.23,6.67-39.23,0,0,9.75,18.85,9.75,31.2s-5.75,20.2-11.6,26.05c-5.85,5.85-9.27,16.94-9.27,16.94,0,0,2.88-9.71,16.53-18.14,0,0,1.02,8.28,3.63,10.89,2.6,2.6-5.29-5.3,1.21-18.95,6.49-13.64,6.66-29.78-2.45-42.13,0,0,3.25,3.9,24.05,4.54,20.8.66,14.89-.18,24.36,1.3,0,0,19.79-.26-17.21-3.89-37-3.63-45.5-23.4-50.05-27.95-4.54-4.55-51.56-52.77-61.31-64.47-9.75-11.7-63.34-70.51-76.99-82.01-16.34-13.77-44.56-46.8-46.52-52.65-1.95-5.85,12.41.96,24.76,13.31,12.35,12.35,58.23,53.41,74.48,76.16,16.25,22.75,63.9,74.31,79.5,85.36,15.6,11.05,60.03,22.36,78.22,32.11,18.2,9.74,4.63-1.14,4.63-1.14,0,0-6.57-4.05-29.32-12.5,0,0,15.6-2.6,25.35-10.4,9.74-7.8,14.17-1.14,21.97-7.64,0,0-8.97,1.8-18.07,2.44,0,0,5.84-9.76,16.25-13.65,0,0-14.31,7.16-21.45,13.65,0,0-18.85,13.65-29.9,11.7-11.05-1.95-29.9-14.95-29.9-14.95,0,0,12.35-5.84,19.5-7.8,7.15-1.95,41.6,1.96,55.9-13.64,0,0-18.2,11.05-44.2,7.8,0,0,2.61-7.8,14.96-12.99,12.34-5.21,34.45-20.8,38.99-34.45,0,0-19.5,29.91-47.44,34.45,0,0,3.25-13.65,9.1-18.21,5.84-4.54,37.05-35.09,38.34-38.99,0,0-33.15,32.5-40.3,35.75-7.15,3.25,3.25-21.45,3.25-21.45,0,0,18.85-25.34,22.1-33.14,3.25-7.81,5.2-11.05,5.2-11.05,0,0-22.75,34.45-26.65,37.7,0,0,.65-22.75,3.25-32.5,2.6-9.74,16.25-31.2,16.25-31.2l3.9-15.59s-12.35,27.95-20.15,38.35c0,0-2.37-38.44-6.95-64.5,0,0,8.52-30.72,2.62-44.22,0,0,4.73,19.26-5.74,41.16,0,0-13.15-18.57-14.89-28.01-1.74-9.43-.72-29.59-.72-29.59l-2.64,23.05s-10.95-6.26-11.64-12.63c-.68-6.36-6.44-26.65-6.44-26.65l-8.77-13.06s10.25,16.95,10.83,34.21c0,0-5.75.88-11.8-7.9-6.05-8.77-22.84-22.37-22.84-22.37,0,0,19.57,24.05,23.1,27.92,3.53,3.86,9.54,8.54,12.24,10.77,2.69,2.23,11.47,15.3,15.02,21.22,3.55,5.92,14.33,25.17,15.92,29.02,1.5,3.62,3.54,13.78,4.84,22.87,1.31,9.1,4.59,23.74,2.65,39.34,0,0-2.6,41.6-3.25,43.54,0,0-4.41,25.3-8.85,37.55-1.96,5.41-10.12,17.29-22.86,22.26,0,0-17.44,8.42-21.05,7.82-3.61-.6-34.75-33.34-44.55-45.49-16.17-20.06-73.12-87.34-105.11-114.37-18.49-15.62-16.78-19.32-52.99-47.92,0,0-24.66-13.51-29.47,17.16-4.81,30.67-3.08,27.7-9.85,28.43l.22,1.88s2.76.27,4.91-.58c0,0-4.82,10.83-12.65,10.24l-.48,3.52s6.51-.85,8.79-1.44c0,0-3.77,5.63-7.98,6.23l-.5,2.48s4.93-.83,7.53-3.42c0,0-5.09,8.6-13.05,9.48l.46,4.41s16.95-2.59,19.36-16.72c3.12-18.31,7.09-14.89,8.04-14.43,7.46,3.64-3.47,27.78-24.41,50.92l2.13,3.76ZM336.06,586.75c52.76,13.83,67.83-6.61,67.83-6.61l2.18,3.76s-16.97,21.51-72.06,8.52c-55.09-12.99-66.46-86.08-62.66-105.38,3.28-16.68,17.78-55.29,48.97-60.4,31.19-5.11,53.65,12.14,65.54,33.99,0,0,16.08,22.96,16.82,53.95,0,0,2.08,13.72,10.74,13.06l.74,2.07s-12.51,1.99-13.69-4.79c0,0-3.33,12.41,5.47,14.32l-.35,3.74s-4.5-.18-7.82-7.24c0,0-.7,11.79,8.41,11.86l-.26,2.47s-13.5,1.72-10.36-17.52c3.26-19.95-6.78-53.74-16.73-65.18-9.39-10.79-26.17-37.68-56.18-33,0,0-21.37,13.52-25.47,32.13-4.49,20.41,10.04,38.6,28.98,63.69,18.94,25.09,50.84,29.5,74.15,25.93l.51,4.6s-45.97,14.79-78.43-26.77c0,0-35.25-36.66-31.13-66.27,0,0-.06-10.61-5.71-1.63-5.65,8.99-20.53,35.87,5.42,85.55,0,0,5.7,12.66,22.25,25.54,0,0,12.04,6.78,22.83,9.61ZM307.75,406.53s.29,10.06-3.55,15.08c-3.84,5.03-12.69,14.14-12.69,14.14l4.41-1.13s10.06-9.76,10.94-13.31c.89-3.55,2.36-10.64.89-14.79M307.75,406.53s.29,10.06-3.55,15.08c-3.84,5.03-12.69,14.14-12.69,14.14l4.41-1.13s10.06-9.76,10.94-13.31c.89-3.55,2.36-10.64.89-14.79ZM287.34,415.1s-.3,23.07.89,26.62l-2.66,1.48s-1.48-18.04,1.77-28.1M287.34,415.1s-.3,23.07.89,26.62l-2.66,1.48s-1.48-18.04,1.77-28.1ZM284.38,446.75s-15.08,3.25-20.41,9.76c-5.32,6.51-5.32,7.4-5.32,7.4,0,0,4.14-4.73,8.87-7.99,4.73-3.25,15.38-5.62,15.38-5.62l1.48-3.55M284.38,446.75s-15.08,3.25-20.41,9.76c-5.32,6.51-5.32,7.4-5.32,7.4,0,0,4.14-4.73,8.87-7.99,4.73-3.25,15.38-5.62,15.38-5.62l1.48-3.55ZM277.88,458.58s-5.91,4.73-7.98,7.69c-2.07,2.96-10.65,16.56-10.65,16.56,0,0,9.46-14.49,13.9-18.04,4.44-3.55,6.21-4.44,6.21-4.44l-1.48-1.77M277.88,458.58s-5.91,4.73-7.98,7.69c-2.07,2.96-10.65,16.56-10.65,16.56,0,0,9.46-14.49,13.9-18.04,4.44-3.55,6.21-4.44,6.21-4.44l-1.48-1.77ZM300.29,464.01s-.33,8.7,3.35,13.05c3.68,4.35,13.05,4.68,13.05,4.68,0,0-10.37-3.34-12.05-7.03-1.67-3.68-1.67-11.04-1.67-11.04l-2.68.34M300.29,464.01s-.33,8.7,3.35,13.05c3.68,4.35,13.05,4.68,13.05,4.68,0,0-10.37-3.34-12.05-7.03-1.67-3.68-1.67-11.04-1.67-11.04l-2.68.34ZM307.99,456.31s6.36,5.69,13.39,6.02c7.03.34,11.38-2.34,11.38-2.34,0,0-7.36,3.01-12.72.33-5.36-2.68-8.7-6.02-8.7-6.02l-3.35,2.01M307.99,456.31s6.36,5.69,13.39,6.02c7.03.34,11.38-2.34,11.38-2.34,0,0-7.36,3.01-12.72.33-5.36-2.68-8.7-6.02-8.7-6.02l-3.35,2.01ZM309.33,430.54s7.02-11.04,18.07-12.05c0,0-12.38-1.67-20.41,11.38l2.34.67M309.33,430.54s7.02-11.04,18.07-12.05c0,0-12.38-1.67-20.41,11.38l2.34.67ZM313.64,430.08s7.09,2.56,1.7,19.58c-5.39,17.03-30.65,28.1-37.46,23.84-6.81-4.26-5.39-22.7,13.62-37.74,12.78-10.11,21.12-6.33,22.14-5.68M313.64,430.08s7.09,2.56,1.7,19.58c-5.39,17.03-30.65,28.1-37.46,23.84-6.81-4.26-5.39-22.7,13.62-37.74,12.78-10.11,21.12-6.33,22.14-5.68ZM315.69,428.16s-5.9,2-6.93,2.63c-1.03.63,7.27,8.13,7.27,8.13,0,0-5.96,1.66.28-2.12l-5.53-7.13M309.78,427.06s-1.53,1.85-2.67,3.53l1.88.08s.64,2.51,2.02,1.14l-1.23-4.75M300.64,428.83s-1.41,1.29-2.82,4.82l-8.43,3.83s6.55-5.55,8.24-7.28l3.02-1.37M287.02,437.81s.37,2.8.99,4.25l-1.65,2.02s-.45-4.99-.41-5.77l1.07-.49M275.61,450.09s5.7-3.74,9.5-4.25l-1.85,7.27s-4.39-2.63-8.71-1.14l1.06-1.88M273.3,463.43s4.69-7.84,5.59-8.47l.21,8.19s-5.22.16-6.24,1.03l.26.44M275.5,474.92s1.45-4.24,1.76-4.67c.31-.43,4,2.43,4,2.43,0,0-1.45,3.53-1.76,4.32-.31.79-4-2.08-4-2.08M291.89,475.51l-.43-6.59,4.79-1.88s-.35,6.43-.31,7.73l-4.04.75M301.46,470.29s-4.96-6.79-4.96-8.12l7.44.19s-1.45,5.7-1.22,7.38l-1.26.55M312.96,458.99s-4.98-1.28-6.59-2.26l5.16-4.3s1.67,4.57,2.96,5.27l-1.53,1.29"/>
  </g>
  <circle id="RA" class="cls-3" cx="90.07" cy="171.39" r="16.76"/>
  <circle id="LA" class="cls-2" cx="934.82" cy="171.39" r="16.76"/>
  <circle id="LL" class="cls-1" cx="512" cy="898.34" r="16.76"/>
</svg>