<?xml version="1.0" encoding="UTF-8"?>
<svg id="Layer_1" data-name="Layer 1" xmlns="http://www.w3.org/2000/svg" xmlns:xlink="http://www.w3.org/1999/xlink" viewBox="0 0 1024 1024">
  <defs>
    <style>
      .cls-1 {
        fill: url(#New_Gradient_Swatch_1);
        opacity: .8;
      }

      .cls-2 {
        fill: url(#linear-gradient);
      }
    </style>
    <linearGradient id="New_Gradient_Swatch_1" data-name="New Gradient Swatch 1" x1="213.79" y1="197.68" x2="903.41" y2="887.29" gradientUnits="userSpaceOnUse">
      <stop offset="0" stop-color="#ad2d2d"/>
      <stop offset=".21" stop-color="#d65858"/>
      <stop offset=".44" stop-color="#ff8282"/>
      <stop offset=".47" stop-color="#ff7b7b"/>
      <stop offset=".65" stop-color="#ff5151"/>
      <stop offset=".74" stop-color="#ff4242"/>
      <stop offset=".86" stop-color="#9e2929"/>
      <stop offset=".98" stop-color="#781f1f"/>
      <stop offset="1" stop-color="#701d1d"/>
    </linearGradient>
    <linearGradient id="linear-gradient" x1="263.75" y1="225.01" x2="790.49" y2="751.75" gradientUnits="userSpaceOnUse">
      <stop offset="0" stop-color="#fff33b"/>
      <stop offset=".13" stop-color="#fee73b"/>
      <stop offset=".35" stop-color="#fcc93e"/>
      <stop offset=".52" stop-color="#fbb040"/>
      <stop offset="1" stop-color="#fff200"/>
    </linearGradient>
  </defs>
  <g id="Heart">
    <path id="Muscles" class="cls-1" d="M879.55,707.75c-.28-5.82-.83-20.69-1.41-26.18-.6-5.49-.85-15.83.12-22.95.97-7.1-2.67-29.09-2.95-33.94-.28-4.86-1.18-14.22-2.41-18.75-1.22-4.53-1.47-12.94-2.06-20.04-.6-7.12-3.33-22.31-4.22-29.43-.91-7.12-3.91-26.2-6.37-32.34-2.46-6.16-3.65-17.79-6.12-24.59-2.46-6.81-7.08-17.81-8.92-24.29-1.84-6.47-3.06-13.91-6.13-20.72-3.08-6.79-3.67-15.2-6.74-22-3.1-6.79-3.38-11.96-5.53-18.12-2.15-6.16-2.73-13.26-6.14-19.09-3.4-5.85-7.1-12.96-9.58-16.53-2.49-3.56-3.37-9.38-11.12-18.47-3.56-4.17-13-18.16-17.66-23.68-4.65-5.52-15.22-11.7-18.96-13.67-3.73-1.96-11.5-10.08-12.42-11.69.96-6.47-1.43-23.27-5.14-30.08-3.69-6.81-16.44-18.19-22.66-22.1-6.21-3.91-15.51-15.59-25.14-24.03-9.62-8.46-30.69-24.11-83.84-48.24-.08-.51-106.61-56.39-271.75,0-58.36,19.93-106.45,48.07-142.61,83.29-15.35,14.95-40.23,56.98-49.93,95.82-7.64,30.65-5.39,75.88-4.29,104.34,1.11,28.43,9.11,46.9,13.12,56.92,4.01,10.05,8.33,14.91,9.86,21.38,1.52,6.48,8.59,27.83,16.26,49.52,7.69,21.69,36.88,45.42,37.82,46.07.93.66,10.24,11.37,13.33,15.25,6.48,8.13,8.46,17.55,19.81,30.16,14.88,16.56,26.71,24.37,49.08,39.69,22.38,15.3,60.37,28.74,69.4,30.73,9.04,1.98,44.57,9.61,56.08,12.25,11.53,2.64,45.18,11.87,55.45,15.8,10.27,3.92,26.13,13.38,37.03,17.32,5.43,1.96,13.71,6.29,21.95,9.43,8.27,3.17,16.48,5.14,21.64,6.95,10.28,3.6,31.76,10.19,43.27,14.78,11.53,4.59,31.45,9.53,54.18,16.43,22.75,6.9,33.99,4.06,47.71,6.72,13.71,2.65,37.4,3.75,52.7,1.24,15.3-2.5,34.07-13.4,51.59-23.96,17.52-10.57,24.76-21.53,34.18-32.77,9.42-11.27,18.23-25.75,22.66-38.98,4.44-13.22,4.82-24.21,5.47-30.01.66-5.82,1.66-21.65,1.38-27.45ZM533.38,186.91c87.14,13.56,194.56,80.74,162.65,111.01-50.35,47.76-119.08,58.22-164.6,67.75-36.79,7.71-76,2.68-137.07-95.53-51.77-83.24,135.46-83.77,139.01-83.23ZM183.61,512.24c-22.49-63.91-34.84-165.32,67.04-232.38,61.96-40.78,96.69-5.32,128.96,34.6,61.16,75.65,68.56,100.95,43.38,128.07-115.71,124.6-220.19,124.25-239.39,69.71ZM686.36,752.36c-20.28,46.94-220.62-8.58-269.17-25.17-83.44-28.52-112.44-52.58-125.88-79.4-29.09-58.1,77.36-137.66,158.8-152.98,47.98-9.02,122.83,92.7,164.59,145.23,32.47,40.85,80.21,92.51,71.66,112.32ZM783.17,707.82c-75.26-31.69-104.89-99.23-218.82-242.05-38.79-48.63,75.89-105.04,137.43-79.4,48.63,20.27,65.27,81.08,77.59,155.85,20.2,122.79,40.61,181.1,3.8,165.6Z"/>
    <path id="Conduction_Pathway" data-name="Conduction Pathway" class="cls-2" d="M367.47,510.38s44.63-37.64,47.52-69.07c2.42-26.33-1.3-41.61,5.11-38.71,2.91,1.32,10.9,24.79,21.45,37.98,10.56,13.19,129.76,124.31,174,188.98,7.75,11.33,57.39,73.47,28.51,107.44-6.03,7.1-10.93,15.79-24.63,18.68-13.69,2.9-36.95-.72-76.44-5.69-30.6-3.85-51.01-11.44-72.99-12.31-21.99-.89-25.5-.88-39.57-8.79-14.07-7.92-32.53-15.83-46.61-18.48-14.07-2.64-27.41-11.65-31.81-15.17-4.4-3.51-10.4-4.17-10.4-4.17,0,0,24.62,16.71,36.06,21.11,11.43,4.4,32.54,10.55,38.69,14.07,6.16,3.52,12.31,7.04,12.31,7.04,0,0-47.61-5.71-35.17-2.64,2.68.66,34.3,10.55,43.97,9.66,9.67-.87,28.14,1.77,37.82,4.4,9.67,2.65,21.98,2.65,31.66,6.17,9.67,3.52,27.26,4.39,27.26,4.39,0,0-37.82,15.84-59.81,15.84,0,0,38.7-2.64,62.44-12.31,0,0,7.91-2.64,16.71-.89,8.8,1.77,13.23,2.03,16.63,4.58,0,0-6.63,9.82-7.64,11.89-1.8,3.69-4.95,8.86-7.06,11.08-11.05,11.65-16.86,22.79-16.86,22.79,0,0-4.1,5.19,16.28-14.35,11.1-10.64,16.98-22.08,16.98-22.08,0,0,4.19,10.51,5.94,26.33,1.76,15.84,3.54,19.39,3.54,19.39,0,0,1.56-14.69,1.56-21.94,0-9.34-7-25.3-.85-30.57,0,0,10.68,20.66,21.23,37.37,10.56,16.71,12.44,14.22,12.44,14.22,0,0-5.56-7.07-8.2-17.61-1.68-6.73-14.25-25.36-15.29-33.12-.59-4.43,7.69.98,11.04-1.7,5.66-4.53,5.19,13.94,27.18,28.03,21.98,14.06,22.7,13.55,27.09,18.83,0,0-12.56-15.32-23.99-25.87-6.93-6.4-16.11-13.64-14.99-18.44.72-3.12,9.86-3.52,13.59-6.79,21.23-18.68,50.11-45.86,7.08-110.12,0,0,7.18,1.14,12.46,9.06,5.28,7.9,35.46,36.27,41.61,43.31,6.16,7.03,24.34,33.17,19.94,51.65-4.4,18.46-26.39,32.53-29.03,49.24-2.63,16.71-2.63,19.36-2.63,19.36,0,0,6.8-30.46,26.15-48.06,19.34-17.59,9.02-53.08,9.02-53.08,0,0,13.19,25.51,13.19,42.21s-7.78,27.33-15.7,35.25c-7.92,7.91-12.55,22.92-12.55,22.92,0,0,3.9-13.13,22.37-24.55,0,0,1.39,11.21,4.91,14.73,3.52,3.52-7.16-7.17,1.64-25.64,8.79-18.46,9.01-40.3-3.31-57,0,0,4.4,5.28,32.54,6.15,28.14.89,20.14-.24,32.96,1.76,0,0,26.78-.35-23.28-5.27-50.07-4.91-61.57-31.67-67.72-37.82-6.15-6.16-69.77-71.41-82.96-87.24-13.2-15.84-85.7-95.41-104.17-110.97-22.11-18.63-60.3-63.32-62.94-71.23-2.64-7.92,16.79,1.3,33.5,18.01,16.71,16.71,78.79,72.26,100.78,103.04,21.99,30.78,86.46,100.55,107.57,115.5,21.11,14.95,81.22,30.25,105.84,43.44,24.62,13.18,6.26-1.55,6.26-1.55,0,0-8.89-5.49-39.68-16.92,0,0,21.1-3.52,34.3-14.08,13.18-10.55,19.17-1.54,29.72-10.34,0,0-12.13,2.43-24.45,3.3,0,0,7.91-13.2,21.99-18.47,0,0-19.36,9.68-29.02,18.47,0,0-25.51,18.47-40.46,15.83-14.95-2.64-40.45-20.23-40.45-20.23,0,0,16.71-7.91,26.38-10.55,9.67-2.64,56.29,2.65,75.63-18.46,0,0-24.63,14.95-59.8,10.55,0,0,3.53-10.55,20.24-17.58,16.7-7.05,46.61-28.14,52.76-46.61,0,0-26.38,40.46-64.2,46.61,0,0,4.39-18.46,12.31-24.63,7.91-6.15,50.13-47.48,51.88-52.76,0,0-44.85,43.97-54.53,48.37-9.67,4.39,4.4-29.03,4.4-29.03,0,0,25.5-34.29,29.9-44.84,4.4-10.56,7.04-14.95,7.04-14.95,0,0-30.78,46.61-36.06,51.01,0,0,.88-30.78,4.4-43.97,3.52-13.18,21.99-42.22,21.99-42.22l5.28-21.1s-16.71,37.82-27.26,51.89c0,0-3.2-52.01-9.41-87.27,0,0,11.52-41.57,3.55-59.83,0,0,6.4,26.07-7.76,55.7,0,0-17.79-25.12-20.14-37.89-2.36-12.77-.97-40.04-.97-40.04l-3.57,31.19s-14.82-8.48-15.76-17.08c-.92-8.61-8.71-36.06-8.71-36.06l-11.86-17.67s13.86,22.94,14.66,46.29c0,0-7.78,1.19-15.96-10.69-8.18-11.87-30.9-30.27-30.9-30.27,0,0,26.48,32.55,31.26,37.78,4.78,5.23,12.91,11.55,16.56,14.57,3.64,3.02,15.52,20.7,20.32,28.72,4.81,8.01,19.39,34.06,21.54,39.26,2.03,4.9,4.79,18.64,6.54,30.95,1.77,12.31,6.22,32.12,3.58,53.23,0,0-3.52,56.28-4.4,58.91,0,0-5.97,34.23-11.97,50.81-2.65,7.31-13.69,23.4-30.93,30.12,0,0-23.6,11.39-28.48,10.58-4.88-.82-47.02-45.11-60.28-61.55-21.87-27.14-98.94-118.18-142.23-154.76-25.02-21.14-22.71-26.15-71.7-64.84,0,0-33.37-18.29-39.87,23.22-6.51,41.5-4.17,37.48-13.33,38.47l.3,2.54s3.74.36,6.64-.78c0,0-6.53,14.66-17.12,13.85l-.65,4.77s8.81-1.16,11.89-1.95c0,0-5.1,7.62-10.79,8.42l-.68,3.35s6.68-1.12,10.19-4.63c0,0-6.89,11.64-17.65,12.82l.63,5.97s22.94-3.5,26.2-22.62c4.23-24.78,9.59-20.14,10.88-19.52,10.09,4.93-4.7,37.59-33.03,68.9l2.88,5.09ZM272.94,513.98c71.38,18.72,91.78-8.94,91.78-8.94l2.95,5.09s-22.96,29.11-97.5,11.52c-74.54-17.58-89.92-116.47-84.78-142.59,4.44-22.57,24.06-74.81,66.26-81.72,42.2-6.92,72.59,16.42,88.68,45.99,0,0,21.75,31.07,22.76,72.99,0,0,2.81,18.56,14.53,17.67l1,2.79s-16.93,2.7-18.53-6.48c0,0-4.5,16.79,7.4,19.38l-.48,5.05s-6.09-.24-10.58-9.79c0,0-.95,15.95,11.38,16.04l-.36,3.34s-18.27,2.32-14.02-23.71c4.41-27-9.17-72.72-22.63-88.19-12.7-14.6-35.41-50.99-76.01-44.65,0,0-28.91,18.29-34.46,43.47-6.08,27.61,13.59,52.23,39.21,86.17,25.62,33.95,68.79,39.91,100.34,35.09l.69,6.22s-62.2,20.02-106.13-36.22c0,0-47.7-49.61-42.12-89.67,0,0-.07-14.36-7.72-2.2-7.64,12.16-27.78,48.53,7.33,115.76,0,0,7.71,17.13,30.11,34.55,0,0,16.29,9.18,30.9,13.01ZM234.63,270.13s.4,13.61-4.8,20.41c-5.2,6.8-17.17,19.14-17.17,19.14l5.97-1.53s13.61-13.2,14.81-18.01c1.2-4.8,3.2-14.4,1.2-20.01M234.63,270.13s.4,13.61-4.8,20.41c-5.2,6.8-17.17,19.14-17.17,19.14l5.97-1.53s13.61-13.2,14.81-18.01c1.2-4.8,3.2-14.4,1.2-20.01ZM207.02,281.74s-.4,31.21,1.2,36.02l-3.6,2s-2-24.41,2.4-38.02M207.02,281.74s-.4,31.21,1.2,36.02l-3.6,2s-2-24.41,2.4-38.02ZM203.02,324.56s-20.41,4.4-27.61,13.2c-7.21,8.81-7.21,10.01-7.21,10.01,0,0,5.6-6.4,12-10.81,6.4-4.4,20.81-7.6,20.81-7.6l2-4.8M203.02,324.56s-20.41,4.4-27.61,13.2c-7.21,8.81-7.21,10.01-7.21,10.01,0,0,5.6-6.4,12-10.81,6.4-4.4,20.81-7.6,20.81-7.6l2-4.8ZM194.22,340.56s-8,6.4-10.8,10.4c-2.8,4-14.41,22.41-14.41,22.41,0,0,12.8-19.61,18.81-24.41,6-4.8,8.4-6,8.4-6l-2-2.4M194.22,340.56s-8,6.4-10.8,10.4c-2.8,4-14.41,22.41-14.41,22.41,0,0,12.8-19.61,18.81-24.41,6-4.8,8.4-6,8.4-6l-2-2.4ZM224.55,347.91s-.45,11.77,4.53,17.66c4.98,5.89,17.66,6.34,17.66,6.34,0,0-14.04-4.52-16.3-9.51-2.26-4.98-2.26-14.94-2.26-14.94l-3.62.46M224.55,347.91s-.45,11.77,4.53,17.66c4.98,5.89,17.66,6.34,17.66,6.34,0,0-14.04-4.52-16.3-9.51-2.26-4.98-2.26-14.94-2.26-14.94l-3.62.46ZM234.96,337.49s8.6,7.7,18.11,8.15c9.51.46,15.4-3.17,15.4-3.17,0,0-9.96,4.08-17.21.45-7.25-3.62-11.77-8.15-11.77-8.15l-4.53,2.72M234.96,337.49s8.6,7.7,18.11,8.15c9.51.46,15.4-3.17,15.4-3.17,0,0-9.96,4.08-17.21.45-7.25-3.62-11.77-8.15-11.77-8.15l-4.53,2.72ZM236.78,302.63s9.5-14.94,24.45-16.3c0,0-16.75-2.27-27.62,15.4l3.17.9M236.78,302.63s9.5-14.94,24.45-16.3c0,0-16.75-2.27-27.62,15.4l3.17.9ZM242.61,302s9.6,3.46,2.31,26.5c-7.3,23.04-41.47,38.02-50.69,32.25-9.22-5.76-7.3-30.72,18.43-51.07,17.29-13.68,28.58-8.57,29.95-7.68M242.61,302s9.6,3.46,2.31,26.5c-7.3,23.04-41.47,38.02-50.69,32.25-9.22-5.76-7.3-30.72,18.43-51.07,17.29-13.68,28.58-8.57,29.95-7.68ZM245.39,299.41s-7.98,2.71-9.38,3.56c-1.39.85,9.84,11,9.84,11,0,0-8.06,2.25.38-2.87l-7.48-9.64M237.39,297.92s-2.07,2.5-3.61,4.78l2.55.11s.87,3.4,2.73,1.54l-1.67-6.42M225.02,300.31s-1.91,1.75-3.82,6.53l-11.41,5.18s8.86-7.51,11.14-9.85l4.09-1.85M206.59,312.46s.5,3.79,1.34,5.75l-2.23,2.73s-.61-6.75-.56-7.81l1.45-.67M191.16,329.07s7.71-5.06,12.86-5.75l-2.5,9.84s-5.95-3.55-11.78-1.54l1.43-2.55M188.03,347.12s6.35-10.61,7.57-11.46l.28,11.08s-7.06.22-8.44,1.39l.36.59M191,362.67s1.96-5.73,2.39-6.32c.42-.58,5.41,3.29,5.41,3.29,0,0-1.96,4.78-2.39,5.84-.42,1.06-5.41-2.81-5.41-2.81M213.18,363.47l-.58-8.92,6.47-2.55s-.48,8.71-.42,10.46l-5.47,1.01M226.13,356.41s-6.71-9.19-6.71-10.99l10.06.26s-1.97,7.71-1.65,9.99l-1.7.74M241.69,341.12s-6.74-1.73-8.92-3.06l6.98-5.82s2.25,6.18,4.01,7.14l-2.07,1.75"/>
  </g>
</svg>